<?xml version="1.0" encoding="utf-8"?>
<!-- Generator: Adobe Illustrator 23.0.1, SVG Export Plug-In . SVG Version: 6.00 Build 0)  -->
<svg version="1.1" id="Layer_4" xmlns="http://www.w3.org/2000/svg" xmlns:xlink="http://www.w3.org/1999/xlink" x="0px" y="0px"
	 viewBox="0 0 834 158.1" style="enable-background:new 0 0 834 158.1;" xml:space="preserve">
<style type="text/css">
	.st0{fill:#006837;}
	.st1{fill:#E6E6E6;}
	.st2{fill:#1A1A1A;}
	.st3{fill:#E6E6E6;stroke:#E6E6E6;stroke-miterlimit:10;}
	.st4{fill:#0071BC;}
	.st5{fill:#29ABE2;}
	.st6{fill-rule:evenodd;clip-rule:evenodd;fill:#E6E6E6;}
	.st7{fill:#B3B3B3;}
	.st8{fill:#F7931E;}
	.st9{fill:#D8D8D8;}
	.st10{fill:#29ABE2;stroke:#FFFFFF;stroke-width:2;stroke-miterlimit:10;}
	.st11{fill:#F7931E;stroke:#FFFFFF;stroke-miterlimit:10;}
	.st12{fill:#E6E6E6;stroke:#1A1A1A;stroke-miterlimit:10;}
	.st13{fill:#1A1A1A;stroke:#FFFFFF;stroke-width:2;stroke-miterlimit:10;}
	.st14{fill:#FFFFFF;}
	.st15{fill:none;stroke:#FFFFFF;stroke-miterlimit:10;}
</style>
<title>logoS</title>
<path class="st0" d="M186.9,49.4h25.2c0.1,0.1,1.2,1.3,3.2,3.9c-0.9,5.4-1.5,8.5-1.6,9.1l-11.2,3.3v-0.1c0-0.1,0.3-2,1-5.6h-7.8
	l-1.1,6.1h14.6c0.1,0.1,1.2,1.3,3.2,3.8l-4.1,23.5H183c-0.3-0.3-1.3-1.6-3.2-3.8c0.9-5.4,1.5-8.5,1.6-9.1l11.2-3.3v0.1
	c0,0.1-0.3,2-1,5.6h7.8l1.1-6.1H186c-0.3-0.3-1.3-1.6-3.2-3.8L186.9,49.4z"/>
<path class="st0" d="M223.8,49.4h29.1L251,59.9h-18.5l-1.1,6.1h12l-1.9,10.6h-12l-1.1,6.1H247l-1.9,10.6H216l3-16.7
	c-0.1-0.4-0.7-4-1.6-10.6h3.5L223.8,49.4z"/>
<path class="st0" d="M260.7,49.4h29.1l-3.2,18.2c-0.7,0.5-2.2,1.8-4.5,3.8l3.2,3.7L282,93.3h-10.6l2.9-16.7h-7.8l-3,16.7h-10.6
	l3-16.7c-0.1-0.4-0.7-4-1.6-10.6h3.5L260.7,49.4z M269.5,59.9l-1.1,6.1h7.8l1.1-6.1H269.5z"/>
<path class="st0" d="M297.6,49.4h25.2c0.1,0.1,1.2,1.3,3.2,3.9c-0.9,5.4-1.5,8.5-1.6,9.1l-11.2,3.3v-0.1c0-0.1,0.3-2,1-5.6h-7.8
	l-4,22.8h7.8l1.1-6.1h-5.8l1.8-10.6h16.4c-2.7,15.3-4.1,23.1-4.2,23.5l-4.5,3.8h-25.2C293.3,73.4,295.9,58.8,297.6,49.4z"/>
<path class="st0" d="M334.4,49.4H345c-1.7,9.4-4.2,24.1-7.8,44h-10.6C330.2,73.4,332.8,58.8,334.4,49.4z"/>
<path class="st0" d="M352.8,49.4h10.6l-5.9,33.4h7.8l5.9-33.4H382c-4.7,26.4-7,39.8-7.1,40.2l-4.5,3.8H349c-0.3-0.3-1.3-1.6-3.2-3.8
	C348.8,72.2,351.2,58.8,352.8,49.4z"/>
<path class="st0" d="M389.7,49.4h25.2c0.1,0.1,1.2,1.3,3.2,3.9c-0.9,5.4-1.5,8.5-1.6,9.1l-11.2,3.3v-0.1c0-0.1,0.3-2,1-5.6h-7.8
	l-1.1,6.1H412c0.1,0.1,1.2,1.3,3.2,3.8l-4.1,23.5h-25.3c-0.3-0.3-1.3-1.6-3.2-3.8c0.9-5.4,1.5-8.5,1.6-9.1l11.2-3.3v0.1
	c0,0.1-0.3,2-1,5.6h7.8l1.1-6.1h-14.6c-0.3-0.3-1.3-1.6-3.2-3.8L389.7,49.4z"/>
<path class="st0" d="M426.6,49.4h29.1c-1.2,6.7-1.8,10.3-1.9,10.7c-8.8,10-15.4,17.6-19.9,22.7h5.3c0.6-3.5,0.9-5.4,1-5.7h0.1
	c1.5,0.5,4.9,1.6,10,3.3c0,0.1-0.8,4.5-2.3,13h-29.1c1.2-6.7,1.8-10.3,1.9-10.7c8.8-10,15.4-17.6,19.9-22.7h-5.3
	c-0.6,3.5-0.9,5.4-1,5.7l0,0l-10-3.3C424.3,62.2,425.1,57.9,426.6,49.4z"/>
<path class="st0" d="M490.4,49.4H501l-5.9,33.4h18.5l-1.9,10.6h-29.1C486.1,73.4,488.7,58.8,490.4,49.4z"/>
<path class="st0" d="M527.3,49.4h29.1L554.5,60H536l-1,6.1h12l-1.9,10.6h-12l-1.1,6.1h18.5l-1.9,10.6h-29.1l3-16.7
	c-0.1-0.4-0.7-4-1.7-10.6h3.5L527.3,49.4z"/>
<path class="st0" d="M564.1,49.4h25.2c0.1,0.1,1.2,1.3,3.2,3.9c-0.9,5.4-1.5,8.5-1.6,9.1l-11.2,3.3v-0.1c0-0.1,0.3-2,1-5.6H573
	l-4,22.8h7.8l1.1-6.1H572l1.9-10.6h16.4c-2.7,15.3-4.1,23.1-4.2,23.5l-4.5,3.8h-25.2C559.9,73.4,562.5,58.8,564.1,49.4z"/>
<path class="st0" d="M604.9,49.4h21.3c0.1,0.1,1.2,1.3,3.2,3.9l-7.1,40.2h-10.6l3-16.7h-7.8L604,93.5h-10.7l2.9-16.7
	c-0.1-0.4-0.7-4-1.6-10.6h3.5c1.4-8,2.2-12.3,2.3-13L604.9,49.4z M609.8,59.9l-1.1,6.1h7.8l1.1-6.1H609.8z"/>
<path class="st0" d="M637.9,49.4h25.2c0.1,0.1,1.2,1.3,3.2,3.9l-7.1,40.2h-10.6l5.9-33.4h-7.8l-5.9,33.4h-10.7
	C633.6,73.4,636.2,58.8,637.9,49.4z"/>
<path d="M219.2,118.7c0,3.3-0.4,5.6-1.2,6.8c-1.5,2.2-5.1,3.3-11,3.3c-2.1,0.1-4.1-0.1-6.1-0.6c-2-0.4-3.7-1.8-4.4-3.8
	c-0.4-1.6-0.6-3.2-0.5-4.8c0-0.5,0-1.3,0.1-2.4s0.1-1.9,0.1-2.4c0-1.5-0.1-3.8-0.2-6.8s-0.2-5.3-0.2-6.8c0-0.3,0.1-0.5,0.4-0.5
	c0.8,0,2,0,3.6,0.1s2.8,0.1,3.6,0.1c0.3,0,0.5,0.1,0.5,0.4c0,1.7-0.1,4.3-0.2,7.8s-0.2,6-0.2,7.8c-0.1,1.4,0.1,2.8,0.6,4.2
	c0.6,1,1.8,1.5,3.6,1.5c2.7,0,4-1.3,4-3.9c0-1.9,0-4.7-0.1-8.5s-0.1-6.6-0.1-8.5c0-0.4,0.2-0.6,0.5-0.6c0.8,0,1.9,0,3.5-0.1
	c1.5-0.1,2.7-0.1,3.5-0.1c0.4,0,0.6,0.2,0.6,0.5c0,1.5-0.1,3.8-0.2,6.8c-0.1,3-0.2,5.3-0.2,6.8c0,0.4,0,1.1,0,1.9
	S219.2,118.3,219.2,118.7z"/>
<path d="M236.5,119.3c0,2.7-1.2,5.2-3.4,6.8c-2,1.7-4.5,2.8-7.2,3.2c-0.1,0-0.2,0-0.3,0c-0.3,0-1-0.9-2-2.8c-0.7-1-1.2-2.2-1.5-3.4
	c0-0.1,0.1-0.2,0.3-0.3c1.3-0.2,2.6-0.6,3.8-1.1s2-1.7,2-3c-0.1-1.1-0.6-2.1-1.3-2.9c-1.5-1.8-2.4-2.8-2.5-3
	c-0.9-1.3-1.4-2.9-1.4-4.5c0-2.4,1.3-4.7,3.3-6c2-1.4,4.3-2.3,6.6-2.6c0.1,0,0.2,0,0.3,0c0.2,0,0.4,0.1,0.5,0.5
	c0.3,0.9,1.1,2.7,2.4,5.2c0,0.1,0.1,0.1,0.1,0.2c0,0.2-0.1,0.3-0.4,0.3c-0.2,0-0.4,0-0.5-0.1c-0.2,0-0.4-0.1-0.6-0.1
	c-0.9,0-1.7,0.2-2.5,0.6s-1.3,1.2-1.3,2.1c0.1,1.1,0.6,2.1,1.4,2.9c1.7,2.1,2.5,3.2,2.6,3.3C235.9,116.2,236.4,117.7,236.5,119.3z"
	/>
<path d="M253.4,113.2c0,0.1-0.1,0.3-0.3,0.3c-9.6,3.4-14.3,5.1-14.2,5.1c-0.1,0-0.2-0.1-0.3-0.4c-0.2-0.8-0.4-1.7-0.6-2.5
	c-0.2-0.7-0.4-1.4-0.5-2.1c0-0.2,0.1-0.4,0.3-0.5c0.9-0.2,3.6-1.1,8-2.7c4.3-1.6,6.4-2.3,6.4-2.3c0.1,0,0.3,0.2,0.3,0.5
	C253.1,111.5,253.4,113.1,253.4,113.2z M257.8,128.7c-1.1,0-2.6,0-4.4-0.1l-4.4-0.1l-5.9-0.1c-0.6,0-1.4,0-2.5-0.1
	c-0.3,0-0.6-0.3-0.6-0.6l0,0c0-1.4,0-3.6,0.1-6.4s0.1-5,0.1-6.4c0-1.5,0-3.8-0.1-6.8s-0.1-5.3-0.1-6.8c0-0.3,0.2-0.4,0.6-0.4
	s1,0,1.8,0.1s1.4,0.1,1.7,0.1s1.1,0,1.9-0.1s1.5-0.1,1.9-0.1c0.2,0,0.3,0.1,0.3,0.4v0.3c-0.2,2.5-0.3,6.2-0.5,11.1v5.2
	c0,1.7,0,2.9,0,3.7c0,0.2,0,0.3,0,0.5s0.1,0.3,0.3,0.3h0.5c1.2,0,3-0.1,5.3-0.2s4.1-0.2,5.3-0.2c0.4,0,0.5,0.1,0.5,0.4
	c0,1.9-0.1,3.9-0.5,5.8c-0.1,0.3-0.2,0.5-0.4,0.6C258.3,128.7,258,128.7,257.8,128.7L257.8,128.7z"/>
<path d="M285.1,118.7c0,3.3-0.4,5.6-1.2,6.8c-1.5,2.2-5.1,3.3-11,3.3c-2.1,0.1-4.1-0.1-6.1-0.6c-2-0.4-3.7-1.8-4.4-3.8
	c-0.4-1.6-0.6-3.2-0.5-4.8c0-0.5,0-1.3,0.1-2.4s0.1-1.9,0.1-2.4c0-1.5-0.1-3.8-0.2-6.8s-0.2-5.3-0.2-6.8c0-0.3,0.1-0.5,0.4-0.5
	c0.8,0,2,0,3.6,0.1s2.8,0.1,3.6,0.1c0.3,0,0.5,0.1,0.5,0.4c0,1.7,0,4.3-0.2,7.8s-0.2,6-0.2,7.8c-0.1,1.4,0.1,2.8,0.6,4.2
	c0.6,1,1.8,1.5,3.6,1.5c2.7,0,4-1.3,4-3.9c0-1.9,0-4.7-0.1-8.5s-0.1-6.6-0.1-8.5c0-0.4,0.2-0.6,0.5-0.6c0.8,0,1.9,0,3.5-0.1
	s2.7-0.1,3.5-0.1c0.4,0,0.6,0.2,0.6,0.5c0,1.5-0.1,3.8-0.2,6.8s-0.2,5.3-0.2,6.8c0,0.4,0,1.1,0,1.9S285.1,118.3,285.1,118.7z"/>
<path d="M314.8,127.7c0,0.4-0.1,0.5-0.5,0.5c-0.7-0.1-1.4-0.2-2.1-0.4c-1.2-0.3-1.9-0.5-2.2-0.6c-2.5,1-5.2,1.6-7.9,1.6
	c-3.7,0.1-7.3-1.3-10-4c-2.6-2.7-4-6.3-3.9-10.1c-0.1-3.8,1.2-7.5,3.7-10.4c2.5-2.8,6.2-4.4,10-4.2c1.9,0,3.8,0.4,5.6,1.1
	c1.8,0.8,3.3,2,4.5,3.5c0.2,0.2,0.3,0.4,0.3,0.7c0,0.4-0.6,1.4-1.8,2.8s-1.9,2.2-2.3,2.2c-0.3-0.2-0.6-0.5-0.9-0.8
	c-0.6-0.6-1.3-1.1-2-1.5c-1-0.5-2.2-0.8-3.3-0.8c-1.8-0.1-3.6,0.7-4.7,2.2c-1.1,1.4-1.7,3.2-1.6,5.1c-0.1,1.8,0.5,3.6,1.7,5.1
	c1.3,1.3,3.1,2,4.9,1.9c1.5,0,3.1-0.4,4.5-1c0-0.4-0.2-1.5-0.4-3.3c-0.2-1.1-0.2-2.2-0.3-3.3c0-0.3,0.1-0.4,0.3-0.4
	c0.1,0,0.2,0,0.3,0c0.4,0,1,0,1.7,0.1s1.3,0.1,1.7,0.1s1,0,1.9-0.1s1.5-0.1,1.9-0.1s0.5,0.2,0.5,0.6c0,0.6,0,1.6-0.1,2.8
	s-0.1,2.2-0.1,2.9c0,1.7,0.1,4.2,0.4,7.6L314.8,127.7z"/>
<path d="M325.6,113.8c0,1.5,0,3.9,0.1,7s0.1,5.5,0.1,7c0,0.3-0.1,0.4-0.2,0.5c-0.2,0-0.3,0.1-0.5,0.1c-1.1,0.1-2.3,0.2-3.4,0.2
	c-1.2,0-2.4,0-3.6-0.2c-0.4-0.1-0.6-0.3-0.6-0.6c0,0.2,0.1-0.9,0.2-3.4c0.2-5.3,0.4-8.8,0.4-10.4c0-1.4,0-3.5-0.1-6.3
	s-0.1-4.9-0.1-6.3c0-0.3,0.1-0.4,0.5-0.4s1,0,1.8,0.1s1.4,0.1,1.8,0.1s1,0,1.8-0.1s1.4-0.1,1.8-0.1s0.6,0.1,0.6,0.4
	c0,1.4-0.1,3.5-0.2,6.3S325.6,112.5,325.6,113.8z"/>
<path d="M358.7,106.8c0,0.3-0.1,0.4-0.4,0.4c-0.5,0-2.5-0.1-5.9-0.3c-0.1,3.3-0.1,5.6-0.1,6.9c0,1.5,0.1,3.9,0.2,7s0.2,5.5,0.2,7
	c0,0.3-0.1,0.4-0.2,0.5c-0.2,0.1-0.4,0.1-0.5,0.1c-1.1,0.1-2.3,0.2-3.5,0.2s-2.4,0-3.5-0.2c-0.3,0-0.6-0.3-0.6-0.6l0,0
	c0-1.5,0.1-3.9,0.2-6.9c0.1-3.1,0.2-5.4,0.2-6.9c0-1,0-3.3-0.2-6.8c-2.6,0.3-4.7,0.4-6.3,0.4c-0.2,0-0.3-0.1-0.3-0.2
	c0.1-0.5,0.1-1,0.3-1.5c0.2-0.9,0.3-1.5,0.4-1.7c0-0.6,0.1-1.2,0.1-1.9c0.1-1,0.3-1.5,0.5-1.5h0.3c3.1,0.3,6.3,0.5,9.4,0.4
	c1.2,0,3.4-0.1,6.5-0.4l2.6-0.2c0.2,0,0.3,0,0.5,0.1c0.1,0.1,0.1,0.3,0.1,0.4c0,0.4,0,0.8,0,1.5s0,1.2,0,1.5c0,0.5,0.1,1,0.1,1.4
	C358.7,105.9,358.7,106.3,358.7,106.8z"/>
<path d="M384.2,128.1c0,0.1-0.1,0.1-0.4,0.2c-2.4,0.2-4.8,0.2-7.2,0c-0.2,0-0.3,0-0.5-0.1c-0.1-0.1-0.2-0.2-0.3-0.4
	c-0.2-0.5-0.5-1.3-0.9-2.3c-0.5-1.3-1.3-3.2-2.4-5.8c-0.3-0.6-1-0.9-1.6-0.8c0.4,0-0.3,0-2,0c-0.2,0-0.3,0.3-0.3,1
	c0,0.9,0.1,2.2,0.3,4s0.2,3.1,0.2,4c0,0.2-0.1,0.4-0.2,0.4h-0.5c-0.8,0.1-2,0.1-3.6,0.1c-1.1,0-2.3,0-3.4-0.1
	c-0.4-0.1-0.6-0.3-0.6-0.6c0-1.4,0.1-3.6,0.2-6.5s0.2-5.1,0.2-6.5c0-5.5-0.1-9.9-0.4-13v-0.4c0-0.2,0.2-0.4,0.6-0.4s2.4-0.2,6-0.2
	c2.4,0,4.4-0.1,5.8-0.1c2.6-0.1,5.1,0.6,7.3,2c2.1,1.5,3.3,4,3.2,6.6c0.1,1.6-0.2,3.1-0.8,4.6c-0.7,1.3-1.7,2.5-3,3.3
	c-0.3,0.2-0.5,0.4-0.5,0.6c0,0.1,0.8,1.8,2.4,4.9C382.9,124.3,383.6,126.2,384.2,128.1z M376,110.5c0.1-1.3-0.5-2.6-1.6-3.3
	c-1.2-0.6-2.5-0.8-3.8-0.7c-1.2,0-1.9,0.2-2,0.6c-0.1,1.3-0.2,2.6-0.1,3.9c0,0.3,0,0.8,0,1.3s0,1,0,1.3c0,0.1,0.2,0.1,0.6,0.2
	c0.8,0.1,1.7,0.2,2.5,0.2C374.5,113.9,376,112.8,376,110.5z"/>
<path d="M412.4,127.8c0,0.2-0.2,0.4-0.5,0.5c-1.2,0.2-2.4,0.2-3.6,0.2s-2.4,0-3.6-0.2c-0.4-0.1-0.8-0.4-0.8-0.9
	c-0.5-1.9-0.8-2.9-1-3c-1.7-0.2-3.5-0.2-5.3-0.1c-1.2-0.1-2.4,0-3.5,0.2c-0.4,0.6-0.7,1.4-0.8,2.1c-0.3,1.1-0.5,1.7-0.9,1.8
	c-1.5,0.2-3,0.2-4.5,0.2c-2,0-3-0.2-3-0.6s1.5-4.6,4.4-12.5c3.2-8.7,5-13.4,5.2-14.3c0.1-0.5,0.3-0.8,0.5-0.8s0.9,0,1.6,0.1
	s1.3,0.1,1.7,0.1s0.9,0,1.6-0.1s1.2-0.1,1.5-0.1s0.5,0.2,0.7,0.6c0.7,1.4,2.5,6.1,5.6,14.1C410.8,123.2,412.3,127.4,412.4,127.8z
	 M398.4,109.9c-0.3,0.6-0.7,1.8-1.4,3.8c-0.5,1.2-0.8,2.4-1.1,3.6c0,0.2,0.4,0.4,1.2,0.4c0.4,0,1.1,0,2,0s1.3-0.1,1.4-0.3
	c0-0.1,0-0.2,0-0.3c-0.2-1.2-0.5-2.4-0.9-3.6C399.3,112.3,398.9,111.1,398.4,109.9L398.4,109.9z"/>
<path d="M440.6,101.4c0,1.5-0.1,3.7-0.2,6.7s-0.2,5.2-0.2,6.8v12.9c0,0.4-0.2,0.5-0.6,0.5s-0.8,0-1.4,0s-1.1,0-1.4,0s-0.9,0-1.5-0.1
	s-1.2-0.1-1.5-0.1s-0.5-0.2-0.9-0.6c-0.9-1.3-3.1-4.1-6.4-8.4c-0.9-1.2-2.3-3-4.1-5.4c-0.1-0.1-0.2-0.2-0.3-0.2
	c-0.1,0.1-0.2,0.3-0.1,0.4c0,1.5,0,3.8,0.1,6.8s0.1,5.3,0.1,6.8c0,0.5-0.2,0.7-0.5,0.7h-6.8c-0.4,0-0.6-0.2-0.6-0.6
	c0-1.4,0.1-3.5,0.2-6.4s0.2-5,0.2-6.4c0-1.5-0.1-3.8-0.2-6.8s-0.2-5.2-0.2-6.7c0-0.3,0.3-0.4,0.8-0.4c0.8,0,1.7-0.1,2.8-0.2
	c0.3,0,0.8-0.1,1.5-0.3c0.5-0.1,1-0.2,1.5-0.2c0.2,0,0.4,0.2,0.7,0.7l7.3,10c0.7,0.9,1.6,2.2,3,4c0.3,0.4,0.6,0.6,0.8,0.6
	s0.3-0.5,0.3-1.5c0-1.4-0.1-3.4-0.2-6.2s-0.2-4.8-0.2-6.2c0-0.5,0.1-0.7,0.4-0.7c0.8,0,2,0,3.5-0.1s2.8-0.1,3.5-0.1
	C440.5,100.8,440.6,101,440.6,101.4z"/>
<path d="M457.7,119.3c0,2.7-1.2,5.2-3.4,6.8c-2,1.7-4.5,2.8-7.2,3.2c-0.1,0-0.2,0-0.3,0c-0.3,0-1-0.9-2-2.8c-0.7-1-1.2-2.2-1.5-3.4
	c0-0.1,0.1-0.2,0.3-0.3c1.3-0.2,2.6-0.6,3.8-1.1c1.2-0.5,2-1.7,2-3c-0.1-1.1-0.6-2.1-1.3-2.9c-1.5-1.8-2.4-2.8-2.5-3
	c-0.9-1.3-1.4-2.9-1.4-4.5c0-2.4,1.3-4.7,3.3-6c2-1.4,4.3-2.3,6.6-2.6c0.1,0,0.2,0,0.3,0c0.2,0,0.4,0.1,0.5,0.5
	c0.3,0.9,1.1,2.7,2.4,5.2c0,0.1,0.1,0.1,0.1,0.2c0,0.2-0.1,0.3-0.4,0.3c-0.2,0-0.4,0-0.5-0.1c-0.2,0-0.3,0-0.5,0.1
	c-0.9,0-1.7,0.2-2.5,0.6s-1.3,1.2-1.3,2.1c0.1,1.1,0.6,2.1,1.4,2.9l2.6,3.3C457.1,116.3,457.6,117.8,457.7,119.3z"/>
<path d="M484.4,111.3c0.1,2.8-0.8,5.5-2.5,7.7c-1.8,2.1-4.6,3.3-7.4,3.1c-0.5,0-1.3,0-2.4-0.1s-1.8-0.1-2.4-0.1s-0.9,0.2-0.9,0.7
	s0.1,1.5,0.2,2.7s0.2,2.1,0.2,2.7c0,0.3-0.1,0.4-0.4,0.4c-0.8,0-2,0-3.6-0.1s-2.8-0.1-3.6-0.1c-0.3,0-0.5-0.1-0.6-0.4
	c0-0.1,0-0.1,0-0.2c0-1.5,0-3.6,0.1-6.5c0-2.9,0.1-5.1,0.1-6.6c0-4.1-0.2-8.4-0.5-13v-0.3c0-0.3,0.2-0.4,0.6-0.4
	c1-0.1,3.3-0.2,6.8-0.2c2,0,4,0,5.9,0.1c2.8,0,5.5,1,7.5,2.9C483.5,105.7,484.6,108.5,484.4,111.3z M476.6,111.6
	c0-3.1-1.5-4.6-4.5-4.6c-2.1,0-3.2,0.1-3.3,0.4c-0.2,1.5-0.2,3-0.1,4.5c0,0.4,0,1,0,1.8s0,1.4,0,1.8c0,0.4,1.2,0.4,3.5,0.4
	C475.2,115.9,476.6,114.5,476.6,111.6L476.6,111.6z"/>
<path d="M514.4,114.6c0.1,3.8-1.3,7.5-3.9,10.3c-5.5,5.6-14.4,5.6-20,0.1c-0.1,0-0.1-0.1-0.1-0.1c-5.2-5.8-5.2-14.7,0-20.5
	c5.4-5.6,14.2-5.7,19.8-0.3c0.1,0.1,0.2,0.2,0.3,0.3C513,107.1,514.5,110.8,514.4,114.6z M507,114.6c0-1.8-0.6-3.6-1.8-5
	c-2.2-2.6-6.1-2.9-8.7-0.7c-0.3,0.2-0.5,0.5-0.7,0.7c-2.5,2.9-2.5,7.1-0.1,10c1.2,1.4,3,2.2,4.8,2.1c1.8,0,3.6-0.8,4.7-2.2
	C506.3,118.2,507,116.4,507,114.6L507,114.6z"/>
<path d="M540.7,128.1c0,0.1-0.1,0.1-0.4,0.2c-1.2,0.1-2.5,0.2-3.8,0.1c-1.2,0-2.3,0-3.5-0.1c-0.2,0-0.3,0-0.5-0.1
	c-0.1-0.1-0.2-0.2-0.3-0.4c-0.2-0.5-0.5-1.3-0.9-2.3c-0.5-1.3-1.3-3.2-2.4-5.8c-0.3-0.6-1-0.9-1.6-0.8c0.4,0-0.3,0-2,0
	c-0.2,0-0.3,0.3-0.3,1c0,0.9,0.1,2.2,0.2,4s0.3,3.1,0.3,4c0,0.2-0.1,0.4-0.2,0.4h-0.5c-0.8,0.1-2,0.1-3.6,0.1c-1.1,0-2.3,0-3.4-0.1
	c-0.4-0.1-0.6-0.3-0.6-0.6c0-1.4,0.1-3.6,0.2-6.5c0.1-2.9,0.2-5.1,0.2-6.5c0-5.5-0.1-9.9-0.4-13v-0.4c0-0.2,0.2-0.4,0.6-0.4
	s2.4-0.2,6-0.2c2.4,0,4.3-0.1,5.8-0.1c2.6-0.1,5.1,0.6,7.3,2c2.1,1.5,3.3,4,3.2,6.6c0.1,1.6-0.2,3.1-0.8,4.6c-0.7,1.3-1.7,2.5-3,3.3
	c-0.3,0.2-0.5,0.4-0.5,0.6c0,0.1,0.8,1.8,2.4,4.9C539.3,124.3,540.1,126.2,540.7,128.1z M532.5,110.5c0.1-1.3-0.5-2.6-1.6-3.3
	c-1.2-0.6-2.5-0.8-3.8-0.7c-1.2,0-1.9,0.2-2,0.6c-0.1,1.3-0.2,2.6-0.1,3.9c0,0.3,0,0.8,0,1.3s0,1,0,1.3c0,0.1,0.2,0.1,0.6,0.2
	c0.8,0.1,1.7,0.2,2.5,0.2C531,113.9,532.5,112.8,532.5,110.5L532.5,110.5z"/>
<path d="M562,106.8c0,0.3-0.1,0.4-0.4,0.4c-0.5,0-2.5-0.1-5.9-0.3c-0.1,3.3-0.1,5.6-0.1,6.9c0,1.5,0.1,3.9,0.2,7
	c0.1,3.1,0.2,5.4,0.2,7c0,0.3-0.1,0.4-0.2,0.5c-0.2,0.1-0.4,0.1-0.5,0.1c-1.1,0.1-2.3,0.2-3.5,0.2s-2.4,0-3.5-0.2
	c-0.3,0-0.6-0.3-0.6-0.6l0,0c0-1.5,0.1-3.9,0.2-6.9c0.1-3.1,0.2-5.4,0.2-6.9c0-1,0-3.3-0.2-6.8c-2.6,0.3-4.7,0.4-6.3,0.4
	c-0.2,0-0.3-0.1-0.3-0.2c0.1-0.5,0.2-1,0.3-1.5c0.2-0.9,0.3-1.5,0.3-1.7c0-0.6,0.1-1.2,0.1-1.9c0.1-1,0.2-1.5,0.5-1.5h0.3
	c3.1,0.3,6.3,0.5,9.4,0.4c1.2,0,3.3-0.1,6.5-0.4l2.6-0.2c0.2,0,0.3,0,0.5,0.1c0.1,0.1,0.1,0.3,0.1,0.4c0,0.4,0,0.8,0,1.5
	s0,1.2,0,1.5c0,0.5,0.1,1,0.1,1.4C562,105.9,562.1,106.3,562,106.8z"/>
<path d="M591.4,114.6c0.1,3.8-1.3,7.5-3.9,10.3c-5.5,5.6-14.4,5.6-20,0.1c-0.1,0-0.1-0.1-0.1-0.1c-5.2-5.8-5.2-14.7,0-20.5
	c5.4-5.6,14.2-5.7,19.8-0.3c0.1,0.1,0.2,0.2,0.3,0.3C590.1,107.1,591.5,110.8,591.4,114.6z M584,114.6c0-1.8-0.6-3.6-1.8-5
	c-2.2-2.6-6.1-2.9-8.7-0.7c-0.3,0.2-0.5,0.5-0.7,0.7c-2.4,2.9-2.5,7.1-0.1,10c1.2,1.4,3,2.2,4.8,2.1c1.8,0,3.6-0.8,4.7-2.2
	C583.4,118.2,584,116.4,584,114.6L584,114.6z"/>
<path d="M629.2,110.8c0,0-1.2,2.7-3.7,7.9s-3.9,8.4-4.2,9c-0.1,0.1-0.1,0.3-0.2,0.4c-0.1,0.1-0.2,0.1-0.4,0.2
	c-0.9,0.1-1.9,0.2-2.8,0.1c-0.9,0-1.7,0-2.6-0.1c-0.2,0-0.3-0.1-0.5-0.2c-0.1-0.1-0.2-0.2-0.3-0.4c-0.1-0.1-0.5-1.1-1.1-2.8
	l-2.1-5.4l-2.2,5.5c-0.2,0.6-0.6,1.5-1.1,2.7c-0.1,0.1-0.2,0.3-0.3,0.4c-0.1,0.1-0.3,0.1-0.5,0.1c-0.9,0.1-1.7,0.1-2.6,0.1
	c-0.9,0-1.9,0-2.8-0.1c-0.3-0.1-0.5-0.3-0.5-0.6c-5.1-10.5-7.7-16.2-7.7-16.9c0-1,0-2.6,0.1-4.7s0.1-3.6,0.1-4.7
	c0-0.4,0.1-0.6,0.4-0.6c0.8,0,1.9,0,3.4,0.1s2.7,0.1,3.4,0.1c0.3,0,0.5,0.1,0.5,0.4c0,1.1,0,2.6-0.2,4.7c-0.1,2.1-0.2,3.7-0.2,4.7
	c0.3,1.3,0.8,2.6,1.4,3.8c0.9,1.9,1.5,3.2,1.9,3.8c0.2,0.3,0.3,0.5,0.4,0.5c0.1,0,0.3-0.6,0.8-1.9c0.8-2,1.4-4.1,1.9-6.2
	c0.1-1.2,0.1-2.7,0-4.6c0-2.7-0.1-4.2-0.1-4.6c0-0.1,0-0.3,0.1-0.4s0.3-0.1,0.4-0.1c1.2-0.1,2.3-0.1,3.5-0.1c2.5,0,3.8,0.2,3.8,0.5
	c0,0.9,0,2.2-0.1,4.1s-0.1,3.2-0.1,4.1v1c0,0.7,0.7,2.8,2,6.4c0.2,0.7,0.5,1.3,0.8,1.9c0.1,0,0.2-0.2,0.4-0.5c0.4-0.7,1-1.9,1.8-3.8
	c0.6-1.2,1-2.4,1.3-3.7c0-1.1,0-2.6-0.2-4.8s-0.1-3.7-0.1-4.7c0-0.2,0.2-0.4,0.5-0.4c0.8,0,1.9,0,3.5-0.1s2.7-0.1,3.5-0.1
	c0.3,0,0.4,0.3,0.4,0.8c0,1,0,2.6,0.1,4.6S629.2,109.8,629.2,110.8z"/>
<path d="M652.2,122.2c-0.1,1-0.2,2.1-0.3,3.1s-0.3,2-0.6,2.9c-0.1,0.2-0.4,0.4-0.7,0.4c-0.2,0-0.4,0-0.6-0.1c-1-0.1-3.8-0.2-8.4-0.2
	h-4.5h-4.5c-0.4,0-0.7-0.2-0.7-0.6c0-1.5,0.1-3.7,0.3-6.6s0.2-5.1,0.2-6.6s-0.1-4.3-0.2-8.3c0-1-0.1-2.6-0.2-4.7v-0.2
	c0-0.3,0.1-0.4,0.5-0.4c1,0,2.4,0,4.4,0.1s3.4,0.1,4.4,0.1s2.4,0,4.3-0.1s3.4-0.1,4.3-0.1c0.7,0,1.1,0.3,1.2,0.8
	c0.1,0.3,0.2,1.2,0.3,2.7s0.2,2.5,0.2,2.8s-0.1,0.4-0.4,0.4c-0.1,0-0.3,0-0.4,0c-3.5-0.3-6.6-0.4-9.4-0.4c-0.7,0-1.1,0.2-1.3,0.5
	c-0.1,0.5-0.2,1-0.1,1.5c-0.1,0.6,0.1,1.2,0.4,1.8c0.4,0.3,0.8,0.4,1.3,0.4h0.8h0.9c1.7,0,3.3,0,5-0.1l1.1-0.1
	c0.4,0,0.7-0.1,1.1-0.1c0.3,0,0.5,0.1,0.5,0.4c-0.2,1-0.3,2-0.4,3c-0.1,1-0.2,2.1-0.2,3.1c0,0.3-0.2,0.4-0.6,0.4l-1.8-0.2
	c-0.8-0.1-2.5-0.1-5.1-0.1h-2c-0.5,0-0.9,0.1-1,0.4c0,0.1,0,0.5,0,1.2c0,0.6,0,1.3,0.2,1.9c0.2,0.5,1.1,0.8,2.5,0.9h2.9
	c0.7,0,1.7-0.1,3.1-0.2c1.4-0.1,2.4-0.2,3.1-0.2C652,121.5,652.2,121.7,652.2,122.2z"/>
<path class="st1" d="M675,81.5c0-3,0.5-5.9,1.5-8.7l21.2-57.7c1.6-4.8,6.1-8,11.2-8.1h90.2c5.1,0.1,9.5,3.3,11.2,8.1l21.2,57.7
	c1,2.8,1.5,5.7,1.5,8.7v32.4H675V81.5z"/>
<path class="st2" d="M799.1,8.1L799.1,8.1c4.6,0.1,8.7,3,10.2,7.4l21.2,57.7c1,2.7,1.5,5.5,1.5,8.3v31.4H676V81.5
	c0-2.8,0.5-5.6,1.5-8.3l21.2-57.7c1.5-4.4,5.6-7.4,10.2-7.4L799.1,8.1 M799.1,6.1h-90.2c-5.5,0.1-10.3,3.6-12.1,8.8l-21.2,57.7
	c-1.1,2.9-1.6,5.9-1.6,9V115h160V81.5c0-3.1-0.5-6.1-1.6-9l-21.2-57.7C809.4,9.6,804.6,6.1,799.1,6.1z"/>
<path class="st2" d="M674,113.8h160v5.1c0,10-8.1,18.1-18,18.1c0,0,0,0-0.1,0H688c-7.7,0-14-6.3-14-14l0,0V113.8L674,113.8
	L674,113.8z"/>
<path class="st3" d="M724.9,117.5h59.2c0.8,0,1.4,0.6,1.4,1.4v9.8c0,0.8-0.6,1.4-1.4,1.4h-59.2c-0.8,0-1.4-0.6-1.4-1.4v-9.8
	C723.5,118.1,724.1,117.5,724.9,117.5z"/>
<g>
	<path class="st2" d="M739.6,127c0,0.5-0.1,0.9-0.4,1.2c-0.3,0.3-0.8,0.5-1.2,0.4h-2.6v-8.9h2.6c0.4,0,0.9,0.1,1.2,0.4
		c0.3,0.3,0.5,0.8,0.4,1.2V127z M738.3,126.7v-5.1c0.1-0.4-0.2-0.7-0.5-0.7c-0.1,0-0.1,0-0.2,0h-0.9v6.6h0.9
		c0.4,0.1,0.7-0.2,0.8-0.6C738.3,126.9,738.3,126.8,738.3,126.7z"/>
	<path class="st2" d="M746.8,119.7l-1.2,8.9h-1.2l-0.8-5c0-0.2,0-0.4,0-0.8c0,0.2,0,0.4,0,0.8l-0.8,5h-1.2l-1.2-8.9h1.3l0.7,5.3
		c0,0.2,0,0.4,0,0.8c0-0.2,0-0.5,0-0.8l0.7-5.3h1l0.7,5.3c0,0.2,0,0.4,0,0.8c0-0.2,0-0.5,0-0.8l0.7-5.3H746.8z"/>
	<path class="st2" d="M751.8,128.6h-1.3l-1.4-4.1v-0.8h1.2v-2.8h-1.6v7.7h-1.3v-8.9h3.3c0.5,0,0.8,0.3,0.8,0.8v3.2
		c0,0.3-0.1,0.6-0.4,0.7c-0.3,0.1-0.5,0.1-0.8,0.1L751.8,128.6z"/>
	<path class="st2" d="M758.8,122.3c0,0.3-0.1,0.6-0.3,0.9l-2.3,4.3h2.6v1.2h-4.1v-0.8l2.9-5.3V121H756v1.6h-1.2v-2
		c0-0.5,0.3-0.8,0.8-0.8h2.4c0.5,0,0.8,0.3,0.8,0.8V122.3z"/>
	<path class="st2" d="M761.2,128.6H760v-6.3h-0.5v-0.2l0.7-2.4h1.1L761.2,128.6z"/>
	<path class="st2" d="M766.3,120.6l-2,8H763l1.9-7.7h-1.6v1.3h-1.2v-2.4h4.2L766.3,120.6z"/>
	<path class="st2" d="M771.2,127.8c0,0.5-0.3,0.8-0.8,0.8h-2.6c-0.5,0-0.8-0.3-0.8-0.8v-7.3c0-0.6,0.3-0.8,0.8-0.8h2.6
		c0.5,0,0.8,0.3,0.8,0.8v1.9H770v-1.6h-1.6v2.7h2.1c0.5,0,0.8,0.3,0.8,0.8L771.2,127.8L771.2,127.8z M769.9,127.5v-2.8h-1.6v2.8
		H769.9z"/>
	<path class="st2" d="M776.3,127.8c0,0.5-0.3,0.8-0.8,0.8h-2.7c-0.5,0-0.8-0.3-0.8-0.8v-7.3c0-0.6,0.3-0.8,0.8-0.8h2.6
		c0.5,0,0.8,0.3,0.8,0.8v1.9h-1.3v-1.6h-1.6v6.6h1.6v-2.5H774v-1.1h2.2v4H776.3z"/>
</g>
<rect x="725" y="118" class="st4" width="4" height="11.6"/>
<rect x="702.5" y="106.9" class="st2" width="103.5" height="7.4"/>
<path class="st5" d="M818,46.2H690l9.8-27.5c1.8-5,6.5-8.4,11.8-8.4h84.8c5.3,0,10,3.4,11.8,8.4L818,46.2z"/>
<polygon class="st2" points="795,51.5 715,51.5 721,47.3 789,47.3 "/>
<rect x="703" y="81" class="st2" width="103" height="15.8"/>
<path class="st6" d="M754.4,83.1c-3.1,0-5.6,2.8-5.6,6.3s2.5,6.3,5.6,6.3s5.6-2.8,5.6-6.3S757.5,83.1,754.4,83.1z M754.4,95.1
	c-2.8,0-5.1-2.6-5.1-5.7s2.3-5.7,5.1-5.7s5.1,2.6,5.1,5.7S757.2,95.1,754.4,95.1L754.4,95.1z"/>
<path class="st6" d="M753.3,85.1c0.4-0.1,0.7-0.2,1.1-0.2c0.4,0,0.8,0.1,1.1,0.2l-1.1,2.8L753.3,85.1z"/>
<path class="st6" d="M756.5,85.7c0.4,0.3,0.8,0.7,1.1,1.1l-1.8,4.5l-0.7-1.8h-1.3l-0.8,1.8l-1.8-4.5c0.3-0.4,0.6-0.8,1.1-1.1
	l1.5,3.6h1.3L756.5,85.7z M750.6,88.2c-0.5,2,0.4,4,2.1,5.1L750.6,88.2z"/>
<path class="st6" d="M753.3,93.7c0.7,0.2,1.5,0.2,2.2,0l-1.1-2.7L753.3,93.7z M756.2,93.4c1.4-0.8,2.2-2.4,2.2-4
	c0-0.4,0-0.8-0.1-1.1L756.2,93.4L756.2,93.4z"/>
<g>
	<path class="st1" d="M786.3,93.1C786.3,93.1,786.3,93.2,786.3,93.1l-0.9,0.1c0,0.2,0,0.4,0,0.5s0,0.4,0,0.8s0,0.6,0,0.8
		s0,0.1-0.1,0.1h-1.7c-0.1,0-0.1,0-0.1-0.1s0-0.4,0-0.8s0-0.6,0-0.8s0-0.2,0-0.5h-0.9l0,0c0,0,0-0.1,0-0.2s0.1-0.2,0.1-0.2
		c0-0.2,0-0.3,0.1-0.5h0.1c0.4,0,1,0,1.6,0h1.1h0.4c0.1,0,0.1,0,0.1,0c0,0.1,0,0.1,0,0.2s0,0.2,0,0.2c0,0.1,0,0.1,0,0.2
		C786.2,93,786.2,93.1,786.3,93.1z"/>
	<path class="st1" d="M791.1,93.7c0,0.2-0.1,0.4-0.2,0.6c-0.1,0.2-0.3,0.4-0.5,0.5c-0.5,0.3-1,0.4-1.5,0.4h-2.2
		c-0.1,0-0.1,0-0.1-0.1s0-0.4,0-0.7s0-0.5,0-0.7s0-0.4,0-0.7s0-0.6,0-0.7s0-0.1,0.1-0.1h1.6c0.7,0,1.3,0.1,2,0.3
		c0.3,0.1,0.5,0.3,0.7,0.5C791,93.3,791.1,93.5,791.1,93.7z M789.4,93.7c0-0.2-0.1-0.3-0.3-0.4s-0.4-0.2-0.7-0.2
		c-0.1,0-0.2,0-0.2,0.1v0.3c0,0.1,0,0.2,0,0.3s0,0.1,0,0.3v0.3c0,0.1,0.1,0.1,0.2,0.1c0.2,0,0.5-0.1,0.7-0.2
		C789.3,94.1,789.4,93.9,789.4,93.7L789.4,93.7z"/>
	<path class="st1" d="M793.4,95.2L793.4,95.2l-1.8,0.1c-0.1,0-0.1,0-0.1-0.1s0-0.4,0-0.8s0-0.6,0-0.8s0-0.4,0-0.7s0-0.5,0-0.6
		s0-0.1,0.1-0.1h1.7c0.1,0,0.1,0,0.1,0.1c0,0.2,0,0.4,0,0.7c0,0.3,0,0.5,0,0.6s0,0.4,0,0.8S793.4,95,793.4,95.2z"/>
</g>
<path class="st2" d="M797.5,138.1v13.4c0,0,0,5.6,3,5.6h13.2c0,0,2.8-1,2.8-5.4v-13.6H797.5z"/>
<path class="st2" d="M692.5,138v13.4c0,0,0,5.6,3,5.6h13.2c0,0,2.8-1,2.8-5.4V138H692.5z"/>
<rect x="676.3" y="81" class="st7" width="26.7" height="15.8"/>
<rect x="676.3" y="81" class="st8" width="5.7" height="15.8"/>
<rect x="804" y="81" class="st7" width="27.7" height="15.8"/>
<rect x="826" y="81" class="st8" width="5.7" height="15.8"/>
<polyline class="st9" points="736.8,10.3 702.5,46.2 720.8,46.2 738.9,10.3 "/>
<polygon class="st9" points="743.6,10.3 723,46.2 729,46.2 745,10.3 "/>
<path class="st2" d="M695,17l-11,29V18.4c0-0.8,0.6-1.4,1.4-1.4l0,0H695z"/>
<path class="st2" d="M813,17l11,29V18.4c0-0.8-0.6-1.4-1.4-1.4l0,0H813z"/>
<path class="st2" d="M18.5,139.6v13c0,0,0,5.5,5.5,5.5h24.5c0,0,5.3-1,5.3-5.3v-13.3H18.5V139.6z"/>
<path class="st2" d="M131.5,139.6v13c0,0,0,5.5,5.5,5.5h24.5c0,0,5.3-1,5.3-5.3v-13.3h-35.3V139.6z"/>
<path class="st0" d="M13,139.1h159V11.2c0,0-1-11.2-11-11.2H25c0,0-11.5,1-11.5,11.2S13,139.1,13,139.1z"/>
<path class="st10" d="M165,26.1v28H21v-28c0,0,1-10,10-10h124C164,16.1,165,26.1,165,26.1z"/>
<rect x="15" y="122.1" class="st1" width="31.6" height="6"/>
<circle class="st11" cx="20.5" cy="113.6" r="6"/>
<circle class="st1" cx="35" cy="114.1" r="6"/>
<rect x="138.4" y="122.1" class="st1" width="31.6" height="6"/>
<circle class="st11" cx="164.5" cy="113.6" r="6"/>
<circle class="st1" cx="149" cy="114.1" r="6"/>
<path class="st12" d="M62.9,114.6h59.2c0.8,0,1.4,0.6,1.4,1.4v9.2c0,0.8-0.6,1.4-1.4,1.4H62.9c-0.8,0-1.4-0.6-1.4-1.4V116
	C61.5,115.2,62.1,114.6,62.9,114.6z"/>
<rect x="12" y="131.1" class="st13" width="161" height="8"/>
<path class="st2" d="M5.7,12.1h0.5c3.2,0,5.7,2.6,5.7,5.7v11.5c0,3.2-2.6,5.7-5.7,5.7H5.7C2.6,35.1,0,32.5,0,29.3V17.8
	C0,14.6,2.6,12.1,5.7,12.1z"/>
<path class="st2" d="M179.7,12.1h0.5c3.2,0,5.7,2.6,5.7,5.7v11.5c0,3.2-2.6,5.7-5.7,5.7h-0.5c-3.2,0-5.7-2.6-5.7-5.7V17.8
	C174,14.6,176.6,12.1,179.7,12.1z"/>
<g>
	<path class="st2" d="M77.6,123.5c0,0.4-0.1,0.9-0.4,1.2s-0.7,0.4-1.2,0.4h-2.6v-8.4H76c0.4,0,0.9,0.1,1.2,0.4
		c0.3,0.3,0.5,0.7,0.4,1.2V123.5z M76.3,123.3v-4.8c0-0.4-0.2-0.7-0.6-0.7c-0.1,0-0.1,0-0.2,0h-0.9v6.3h0.9
		C76.1,124.1,76.3,123.8,76.3,123.3L76.3,123.3z"/>
	<path class="st2" d="M84.7,116.7l-1.2,8.4h-1.2l-0.8-4.8c0-0.2,0-0.4,0-0.8c0,0.2,0,0.4,0,0.8l-0.7,4.8h-1.2l-1.2-8.4h1.3l0.7,5
		c0,0.2,0,0.4,0,0.8c0-0.2,0-0.4,0-0.8l0.7-5h1l0.7,5c0,0.2,0,0.4,0,0.8c0-0.2,0-0.4,0-0.8l0.7-5H84.7z"/>
	<path class="st2" d="M89.8,125.1h-1.3l-1.4-3.9v-0.8h1.2v-2.7h-1.6v7.3h-1.3v-8.4h3.3c0.4,0,0.7,0.2,0.8,0.6c0,0.1,0,0.1,0,0.2v3
		c0,0.3-0.1,0.6-0.4,0.7c-0.3,0.1-0.5,0.1-0.8,0.1L89.8,125.1z"/>
	<path class="st2" d="M97.1,123.5h-0.6v1.6h-1.2v-1.6h-2.8v-0.8l2.1-6.1h1.3l0,0l-2,5.7h1.4v-2.5h1.2v2.5H97L97.1,123.5z"/>
	<path class="st2" d="M99.3,125.1h-1.2v-5.9h-0.5v-0.1l0.6-2.3h1.1V125.1z"/>
	<path class="st2" d="M104.4,124.4c0.1,0.4-0.2,0.7-0.6,0.8c-0.1,0-0.1,0-0.2,0h-2.5c-0.4,0-0.7-0.2-0.8-0.6c0-0.1,0-0.1,0-0.2v-1.9
		h1.2v1.7h1.6V121h-2.8l0.1-4.1h3.8v1.1h-2.7l-0.1,1.9h2c0.4-0.1,0.7,0.2,0.8,0.6c0,0.1,0,0.1,0,0.2L104.4,124.4z"/>
	<path class="st2" d="M106.9,125.1h-1.2v-5.9h-0.5v-0.1l0.6-2.3h1.1V125.1z"/>
	<path class="st2" d="M112,124.4c0.1,0.4-0.2,0.7-0.6,0.8c-0.1,0-0.1,0-0.2,0h-2.5c-0.4,0-0.7-0.2-0.8-0.6c0-0.1,0-0.1,0-0.2v-1.8
		h1.2v1.5h1.6v-2.5h-2.1c-0.4,0-0.7-0.2-0.7-0.6c0-0.1,0-0.1,0-0.2v-3.3c0-0.5,0.3-0.8,0.7-0.8h2.6c0.4,0,0.7,0.2,0.8,0.6
		c0,0.1,0,0.1,0,0.2V124.4z M110.8,120.5v-2.7h-1.6v2.7H110.8z"/>
</g>
<rect x="62" y="115.1" class="st4" width="4" height="11"/>
<rect x="30" y="0.1" class="st2" width="130" height="10"/>
<path class="st13" d="M47.8,62.1h87.5c3.7,0,6.8,3,6.8,6.8v32.4c0,3.7-3,6.8-6.8,6.8H47.8c-3.7,0-6.8-3-6.8-6.8V68.8
	C41,65.1,44,62.1,47.8,62.1z"/>
<g>
	<path class="st14" d="M81,79.9h-4.6v-6.8c0-0.5,0.1-1,0.3-1.5l-4.2,7h-2.4l-4.2-7c0.2,0.5,0.3,1,0.3,1.5v6.8h-4.6V66.1h4.6l5.1,7.6
		c0.1,0.2,0.1,0.4,0.1,0.6c0-0.2,0.1-0.4,0.1-0.6l5-7.6H81V79.9z"/>
	<path class="st14" d="M101.2,79.9h-4.8l-1-2.6h-6l-1,2.6h-4.7l0,0l6.2-13.7H95L101.2,79.9z M94.8,75.5l-2.4-6.2L90,75.5H94.8z"/>
	<path class="st14" d="M120.2,79.9H116l-7.7-8.7c0.2,0.3,0.3,0.6,0.3,1v7.7h-4.7V66.1h4.2l7.7,8.5c-0.2-0.3-0.3-0.6-0.3-1v-7.5h4.7
		V79.9z"/>
</g>
<path class="st15" d="M83.8,82.1h16.4c1.6,0,2.8,1.3,2.8,2.8v16.4c0,1.6-1.3,2.8-2.8,2.8H83.8c-1.6,0-2.8-1.3-2.8-2.8V84.9
	C81,83.3,82.3,82.1,83.8,82.1z"/>
<polygon class="st1" points="82,99.7 82.6,99 83.3,99 85.3,96.4 85.5,96.4 88.6,93.3 94.6,92 97.9,87.8 98.5,87.8 99.6,87.1 
	99.6,88.2 101.8,89.3 101.6,90.7 101.2,90.9 101.4,91.1 101.2,92.4 99.9,92.4 99.4,96 97.9,97.1 97.2,98.8 97.9,99.1 98.3,100.1 
	95.9,100.1 95.4,96.8 88.8,96.8 86,99 86.8,99.3 86.9,100.1 84.2,100.1 84.9,97.9 83.1,99.9 82.2,99.9 "/>
<polygon class="st9" points="65,17.1 70,17.1 49,53.1 36,53.1 "/>
<polygon class="st9" points="77,17.1 81,17.1 59,53.1 52,53.1 "/>
</svg>
