<?xml version="1.0" encoding="utf-8"?>
<!-- Generator: Adobe Illustrator 23.0.1, SVG Export Plug-In . SVG Version: 6.00 Build 0)  -->
<svg version="1.1" id="Layer_1" xmlns="http://www.w3.org/2000/svg" xmlns:xlink="http://www.w3.org/1999/xlink" x="0px" y="0px"
	 viewBox="0 0 185.9 158" style="enable-background:new 0 0 185.9 158;" xml:space="preserve">
<style type="text/css">
	.st0{fill:#1A1A1A;}
	.st1{fill:#006837;}
	.st2{fill:#29ABE2;stroke:#FFFFFF;stroke-width:2;stroke-miterlimit:10;}
	.st3{fill:#E6E6E6;}
	.st4{fill:#F7931E;stroke:#FFFFFF;stroke-miterlimit:10;}
	.st5{fill:#E6E6E6;stroke:#1A1A1A;stroke-miterlimit:10;}
	.st6{fill:#1A1A1A;stroke:#FFFFFF;stroke-width:2;stroke-miterlimit:10;}
	.st7{enable-background:new    ;}
	.st8{fill:#0071BC;}
	.st9{fill:#FFFFFF;}
	.st10{fill:none;stroke:#FFFFFF;stroke-miterlimit:10;}
	.st11{fill:#D8D8D8;}
</style>
<title>man</title>
<g>
	<path class="st0" d="M18.5,139.5v13c0,0,0,5.5,5.5,5.5h24.5c0,0,5.3-1,5.3-5.3v-13.3H18.5V139.5z"/>
	<path class="st0" d="M131.5,139.5v13c0,0,0,5.5,5.5,5.5h24.5c0,0,5.3-1,5.3-5.3v-13.3h-35.3V139.5z"/>
	<path class="st1" d="M13,139h159V11.2c0,0-1-11.2-11-11.2H25c0,0-11.5,1-11.5,11.2S13,139,13,139z"/>
	<path class="st2" d="M165,26v28H21V26c0,0,1-10,10-10h124C164,16,165,26,165,26z"/>
	<rect x="15" y="122" class="st3" width="31.6" height="6"/>
	<circle class="st4" cx="20.5" cy="113.5" r="6"/>
	<circle class="st3" cx="35" cy="114" r="6"/>
	<rect x="138.4" y="122" class="st3" width="31.6" height="6"/>
	<circle class="st4" cx="164.5" cy="113.5" r="6"/>
	<circle class="st3" cx="149" cy="114" r="6"/>
	<path class="st5" d="M62.9,114.5h59.2c0.8,0,1.4,0.6,1.4,1.4v9.2c0,0.8-0.6,1.4-1.4,1.4H62.9c-0.8,0-1.4-0.6-1.4-1.4v-9.2
		C61.5,115.1,62.1,114.5,62.9,114.5z"/>
	<rect x="12" y="131" class="st6" width="161" height="8"/>
	<path class="st0" d="M5.7,12h0.5c3.2,0,5.7,2.6,5.7,5.7v11.5c0,3.2-2.6,5.7-5.7,5.7H5.7C2.6,35,0,32.4,0,29.3V17.7
		C0,14.6,2.6,12,5.7,12z"/>
	<path class="st0" d="M179.7,12h0.5c3.2,0,5.7,2.6,5.7,5.7v11.5c0,3.2-2.6,5.7-5.7,5.7h-0.5c-3.2,0-5.7-2.6-5.7-5.7V17.7
		C174,14.6,176.6,12,179.7,12z"/>
	<g class="st7">
		<path class="st0" d="M77.6,123.5c0,0.5-0.1,0.9-0.4,1.2s-0.7,0.4-1.2,0.4h-2.6v-8.4h2.6c0.5,0,0.9,0.1,1.2,0.4
			c0.3,0.3,0.4,0.7,0.4,1.2V123.5z M76.3,123.3v-4.8c0-0.5-0.2-0.7-0.7-0.7h-0.9v6.2h0.9C76,124,76.3,123.7,76.3,123.3z"/>
		<path class="st0" d="M84.7,116.7l-1.2,8.4h-1.2l-0.8-4.8c0-0.2,0-0.4,0-0.8c0,0.2,0,0.4,0,0.8l-0.7,4.8h-1.2l-1.2-8.4h1.3l0.6,5
			c0,0.2,0,0.4,0,0.8c0-0.2,0-0.4,0-0.8l0.7-5h1l0.7,5c0,0.2,0,0.4,0,0.8c0-0.2,0-0.4,0-0.8l0.6-5H84.7z"/>
		<path class="st0" d="M89.7,125.1h-1.3l-1.4-3.9v-0.8h1.2v-2.7h-1.6v7.3h-1.3v-8.4h3.3c0.5,0,0.8,0.3,0.8,0.8v3.1
			c0,0.4-0.1,0.6-0.4,0.7c-0.1,0.1-0.4,0.1-0.8,0.1L89.7,125.1z"/>
		<path class="st0" d="M97.1,123.5h-0.6v1.6h-1.2v-1.6h-2.8v-0.7l2.1-6.1h1.3c0,0,0,0,0,0l-2,5.7h1.4v-2.5h1.2v2.5h0.6V123.5z"/>
		<path class="st0" d="M99.3,125.1h-1.2v-5.9h-0.5V119l0.6-2.3h1.1V125.1z"/>
		<path class="st0" d="M104.4,124.3c0,0.5-0.3,0.8-0.8,0.8h-2.5c-0.5,0-0.7-0.3-0.7-0.8v-1.9h1.2v1.6h1.6v-3.2h-2.8l0.1-4.1h3.8v1.1
			h-2.7l-0.1,1.9h2c0.5,0,0.8,0.3,0.8,0.8V124.3z"/>
		<path class="st0" d="M106.9,125.1h-1.2v-5.9h-0.5V119l0.6-2.3h1.1V125.1z"/>
		<path class="st0" d="M112,124.3c0,0.5-0.3,0.8-0.8,0.8h-2.5c-0.5,0-0.8-0.3-0.8-0.8v-1.8h1.2v1.5h1.6v-2.5h-2.1
			c-0.5,0-0.7-0.3-0.7-0.8v-3.3c0-0.5,0.2-0.8,0.7-0.8h2.6c0.5,0,0.8,0.3,0.8,0.8V124.3z M110.8,120.4v-2.7h-1.6v2.7H110.8z"/>
	</g>
	<rect x="62" y="115" class="st8" width="4" height="11"/>
	<rect x="30" class="st0" width="130" height="10"/>
	<path class="st6" d="M47.8,62h87.5c3.7,0,6.8,3,6.8,6.8v32.5c0,3.7-3,6.8-6.8,6.8H47.8c-3.7,0-6.8-3-6.8-6.8V68.8
		C41,65,44,62,47.8,62z"/>
	<g class="st7">
		<path class="st9" d="M81,79.8h-4.6v-6.8c0-0.4,0.1-0.9,0.3-1.5l-4.2,7h-2.4l-4.2-7c0.2,0.7,0.3,1.1,0.3,1.5v6.8h-4.6V66.1h4.5
			l5.1,7.6c0.1,0.1,0.1,0.3,0.1,0.6c0-0.1,0-0.4,0.1-0.6l5.1-7.6H81V79.8z"/>
		<path class="st9" d="M101.2,79.8h-4.8l-1-2.6h-6l-1,2.6h-4.8v0l6.2-13.7H95L101.2,79.8z M94.8,75.5l-2.3-6.2l-2.4,6.2H94.8z"/>
		<path class="st9" d="M120.2,79.8H116l-7.7-8.7c0.2,0.4,0.3,0.8,0.3,1v7.7h-4.7V66.1h4.2l7.7,8.5c-0.2-0.4-0.3-0.8-0.3-1v-7.5h4.7
			V79.8z"/>
	</g>
	<path class="st10" d="M83.8,82h16.4c1.6,0,2.8,1.3,2.8,2.8v16.4c0,1.6-1.3,2.8-2.8,2.8H83.8c-1.6,0-2.8-1.3-2.8-2.8V84.8
		C81,83.3,82.3,82,83.8,82z"/>
	<polygon class="st3" points="82,99.6 82.6,98.9 83.3,98.9 85.3,96.3 85.5,96.3 88.6,93.2 94.6,91.9 97.9,87.7 98.5,87.7 99.6,87 
		99.6,88.1 101.8,89.2 101.6,90.7 101.2,90.8 101.4,91 101.2,92.3 99.9,92.3 99.4,96 97.9,97.1 97.2,98.7 97.9,99.1 98.3,100 
		95.9,100 95.4,96.7 88.8,96.7 86,98.9 86.8,99.3 86.9,100 84.2,100 84.9,97.8 83.1,99.8 82.2,99.8 	"/>
	<polygon class="st11" points="65,17 70,17 49,53 36,53 	"/>
	<polygon class="st11" points="77,17 81,17 59,53 52,53 	"/>
</g>
</svg>
