<?xml version="1.0" encoding="utf-8"?>
<!-- Generator: Adobe Illustrator 23.0.1, SVG Export Plug-In . SVG Version: 6.00 Build 0)  -->
<svg version="1.1" id="Layer_4" xmlns="http://www.w3.org/2000/svg" xmlns:xlink="http://www.w3.org/1999/xlink" x="0px" y="0px"
	 viewBox="0 0 160 151" style="enable-background:new 0 0 160 151;" xml:space="preserve">
<style type="text/css">
	.st0{fill:#E6E6E6;}
	.st1{fill:#1A1A1A;}
	.st2{fill:#E6E6E6;stroke:#E6E6E6;stroke-miterlimit:10;}
	.st3{enable-background:new    ;}
	.st4{fill:#0071BC;}
	.st5{fill:#29ABE2;}
	.st6{fill-rule:evenodd;clip-rule:evenodd;fill:#E6E6E6;}
	.st7{fill:#B3B3B3;}
	.st8{fill:#F7931E;}
	.st9{fill:#D8D8D8;}
</style>
<title>t4</title>
<path class="st0" d="M1,75.4c0-3,0.5-5.9,1.5-8.7L23.7,9.1c1.6-4.8,6.1-8,11.2-8.1h90.2c5.1,0.1,9.5,3.3,11.2,8.1l21.2,57.7
	c1,2.8,1.5,5.7,1.5,8.7v32.4H1V75.4z"/>
<path class="st1" d="M125.1,2L125.1,2c4.6,0.1,8.7,3,10.2,7.4l21.2,57.7c1,2.7,1.5,5.5,1.5,8.3v31.4H2V75.4c0-2.8,0.5-5.6,1.5-8.3
	L24.7,9.4c1.5-4.4,5.6-7.4,10.2-7.4L125.1,2 M125.1,0H34.9c-5.5,0.1-10.3,3.6-12.1,8.8L1.6,66.4c-1.1,2.9-1.6,5.9-1.6,9v33.4h160
	V75.4c0-3.1-0.5-6.1-1.6-9L137.2,8.7C135.4,3.6,130.6,0.1,125.1,0L125.1,0z"/>
<path class="st1" d="M0,107.7h160l0,0v5.1c0,10-8.1,18.1-18.1,18.1l0,0H14c-7.7,0-14-6.3-14-14l0,0V107.7L0,107.7L0,107.7z"/>
<path class="st2" d="M50.9,111.4h59.2c0.8,0,1.4,0.6,1.4,1.4v9.8c0,0.8-0.6,1.4-1.4,1.4H50.9c-0.8,0-1.4-0.6-1.4-1.4v-9.8
	C49.5,112,50.1,111.4,50.9,111.4z"/>
<g class="st3">
	<path class="st1" d="M65.6,120.9c0,0.5-0.1,0.9-0.4,1.2c-0.3,0.3-0.7,0.4-1.2,0.4h-2.6v-8.9h2.6c0.5,0,0.9,0.2,1.2,0.5
		c0.3,0.3,0.4,0.7,0.4,1.2V120.9z M64.3,120.7v-5.1c0-0.5-0.2-0.7-0.7-0.7h-0.9v6.6h0.9C64.1,121.4,64.3,121.2,64.3,120.7z"/>
	<path class="st1" d="M72.8,113.7l-1.2,8.9h-1.2l-0.8-5c0-0.2,0-0.5,0-0.8c0,0.2,0,0.5,0,0.8l-0.7,5h-1.2l-1.2-8.9h1.3l0.7,5.3
		c0,0.2,0,0.5,0,0.8c0-0.2,0-0.5,0-0.8l0.7-5.3h1l0.7,5.3c0,0.2,0,0.5,0,0.8c0-0.2,0-0.5,0-0.8l0.7-5.3H72.8z"/>
	<path class="st1" d="M77.8,122.6h-1.3l-1.4-4.1v-0.8h1.2v-2.8h-1.6v7.7h-1.3v-8.9h3.3c0.5,0,0.8,0.3,0.8,0.8v3.2
		c0,0.4-0.1,0.6-0.4,0.7c-0.1,0.1-0.4,0.1-0.8,0.1L77.8,122.6z"/>
	<path class="st1" d="M84.8,116.2c0,0.3-0.1,0.6-0.3,0.9l-2.3,4.3h2.6v1.2h-4.1v-0.8l2.9-5.3v-1.6H82v1.7h-1.2v-2
		c0-0.5,0.3-0.8,0.8-0.8H84c0.5,0,0.8,0.3,0.8,0.8V116.2z"/>
	<path class="st1" d="M87.2,122.6H86v-6.3h-0.5v-0.2l0.7-2.4h1.1V122.6z"/>
	<path class="st1" d="M92.3,114.5l-1.9,8h-1.3l1.9-7.7h-1.6v1.3h-1.2v-2.4h4.2V114.5z"/>
	<path class="st1" d="M97.2,121.7c0,0.5-0.3,0.8-0.8,0.8h-2.6c-0.5,0-0.8-0.3-0.8-0.8v-7.3c0-0.5,0.3-0.8,0.8-0.8h2.6
		c0.5,0,0.8,0.3,0.8,0.8v1.9h-1.2v-1.6h-1.6v2.7h2.1c0.5,0,0.8,0.3,0.8,0.8V121.7z M95.9,121.4v-2.8h-1.6v2.8H95.9z"/>
	<path class="st1" d="M102.3,121.7c0,0.5-0.3,0.8-0.8,0.8h-2.7c-0.5,0-0.7-0.3-0.7-0.8v-7.3c0-0.5,0.3-0.8,0.8-0.8h2.6
		c0.5,0,0.8,0.3,0.8,0.8v1.9h-1.3v-1.6h-1.6v6.6h1.6v-2.5h-0.9v-1.1h2.2V121.7z"/>
</g>
<rect x="51" y="111.9" class="st4" width="4" height="11.6"/>
<rect x="28.5" y="100.8" class="st1" width="103.5" height="7.4"/>
<path class="st5" d="M144,40.1H16l9.8-27.5c1.8-5,6.5-8.4,11.8-8.4h84.8c5.3,0,10,3.4,11.8,8.4L144,40.1z"/>
<polygon class="st1" points="121,45.4 41,45.4 47,41.2 115,41.2 "/>
<rect x="29" y="75" class="st1" width="103" height="15.8"/>
<path class="st6" d="M80.4,77.1c-3.1,0-5.6,2.8-5.6,6.3s2.5,6.3,5.6,6.3s5.6-2.8,5.6-6.3S83.5,77.1,80.4,77.1z M80.4,89
	c-2.8,0-5.1-2.6-5.1-5.7s2.3-5.7,5.1-5.7c2.8,0,5.1,2.6,5.1,5.7S83.2,89,80.4,89z"/>
<path class="st6" d="M79.3,79.1c0.4-0.1,0.7-0.2,1.1-0.2c0.4,0,0.8,0.1,1.1,0.2l-1.1,2.8L79.3,79.1z"/>
<path class="st6" d="M82.5,79.6c0.4,0.3,0.8,0.7,1.1,1.1l-1.8,4.5l-0.7-1.8h-1.3L79,85.2l-1.8-4.5c0.3-0.4,0.6-0.8,1.1-1.1l1.5,3.6
	h1.3L82.5,79.6z M76.6,82.2c-0.5,2,0.4,4,2.1,5.1L76.6,82.2z"/>
<path class="st6" d="M79.3,87.6c0.7,0.2,1.5,0.2,2.2,0l-1.1-2.7L79.3,87.6z M82.2,87.3c1.4-0.8,2.2-2.4,2.2-4c0-0.4,0-0.8-0.1-1.1
	L82.2,87.3L82.2,87.3z"/>
<g class="st3">
	<path class="st0" d="M112.3,87.1C112.3,87.1,112.2,87.1,112.3,87.1c0,0-0.3,0-0.9,0c0,0.2,0,0.4,0,0.5c0,0.2,0,0.4,0,0.8
		c0,0.3,0,0.6,0,0.8c0,0,0,0.1-0.1,0.1c-0.1,0-0.2,0-0.4,0c-0.2,0-0.3,0-0.4,0c-0.1,0-0.2,0-0.4,0c-0.2,0-0.3,0-0.4,0
		c-0.1,0-0.1,0-0.1-0.1c0-0.2,0-0.4,0-0.8c0-0.3,0-0.6,0-0.8c0-0.1,0-0.2,0-0.5c-0.2,0-0.5,0-0.9,0c0,0-0.1,0-0.1,0
		c0,0,0-0.1,0.1-0.2c0-0.1,0.1-0.2,0.1-0.2c0-0.1,0-0.3,0.1-0.5c0,0,0,0,0,0c0,0,0,0,0.1,0c0.4,0,1,0,1.6,0c0.2,0,0.6,0,1.1,0
		c0.3,0,0.4,0,0.4,0c0.1,0,0.1,0,0.1,0c0,0,0,0.1,0,0.2c0,0.1,0,0.2,0,0.2c0,0,0,0.1,0,0.2C112.2,86.9,112.3,87,112.3,87.1z"/>
	<path class="st0" d="M117.1,87.7c0,0.2-0.1,0.4-0.2,0.6s-0.3,0.4-0.5,0.5c-0.4,0.3-0.9,0.4-1.5,0.4c-0.1,0-0.3,0-0.6,0
		c-0.3,0-0.5,0-0.6,0c-0.1,0-0.3,0-0.5,0c-0.2,0-0.4,0-0.5,0c-0.1,0-0.1,0-0.1-0.1c0-0.2,0-0.4,0-0.7c0-0.3,0-0.5,0-0.7
		c0-0.2,0-0.4,0-0.7c0-0.3,0-0.6,0-0.7c0,0,0,0,0.1,0h0.8c0.1,0,0.2,0,0.4,0c0.2,0,0.3,0,0.4,0c0.9,0,1.5,0.1,1.9,0.3
		c0.3,0.1,0.5,0.3,0.7,0.5C117,87.2,117.1,87.4,117.1,87.7z M115.4,87.7c0-0.2-0.1-0.3-0.3-0.4c-0.2-0.1-0.4-0.2-0.7-0.2
		c-0.1,0-0.2,0-0.2,0.1c0,0.1,0,0.1,0,0.3s0,0.2,0,0.3c0,0.1,0,0.1,0,0.3c0,0.1,0,0.2,0,0.3c0,0.1,0.1,0.1,0.2,0.1
		c0.3,0,0.5-0.1,0.7-0.2C115.3,88,115.4,87.8,115.4,87.7z"/>
	<path class="st0" d="M119.4,89.1C119.4,89.1,119.4,89.2,119.4,89.1c-0.2,0.1-0.3,0.1-0.5,0.1c-0.2,0-0.3,0-0.4,0
		c-0.1,0-0.2,0-0.4,0c-0.2,0-0.3,0-0.4,0c-0.1,0-0.1,0-0.1-0.1c0-0.2,0-0.4,0-0.8c0-0.3,0-0.6,0-0.8c0-0.1,0-0.4,0-0.6
		c0-0.3,0-0.5,0-0.6c0,0,0,0,0.1,0c0.1,0,0.2,0,0.4,0c0.2,0,0.3,0,0.4,0c0.1,0,0.2,0,0.4,0c0.2,0,0.3,0,0.4,0c0.1,0,0.1,0,0.1,0
		c0,0.1,0,0.4,0,0.6c0,0.3,0,0.5,0,0.6c0,0.2,0,0.4,0,0.8C119.4,88.7,119.4,88.9,119.4,89.1z"/>
</g>
<path class="st1" d="M123.5,132v13.4c0,0,0,5.6,3,5.6h13.2c0,0,2.8-1,2.8-5.4V132H123.5z"/>
<path class="st1" d="M18.5,131.9v13.4c0,0,0,5.6,3,5.6h13.2c0,0,2.8-1,2.8-5.4v-13.6H18.5z"/>
<rect x="2.3" y="75" class="st7" width="26.7" height="15.8"/>
<rect x="2.3" y="75" class="st8" width="5.7" height="15.8"/>
<rect x="130" y="75" class="st7" width="27.7" height="15.8"/>
<rect x="152" y="75" class="st8" width="5.7" height="15.8"/>
<polyline class="st9" points="62.8,4.2 28.5,40.1 46.8,40.1 64.9,4.2 "/>
<polygon class="st9" points="69.6,4.2 49,40.1 55,40.1 71,4.2 "/>
<path class="st1" d="M21,10.9l-11,29V12.3c0-0.8,0.6-1.4,1.4-1.4h0H21z"/>
<path class="st1" d="M139,10.9l11,29V12.3c0-0.8-0.6-1.4-1.4-1.4H139z"/>
</svg>
